HIERARCHY
ROOT Hips
{
  OFFSET -284.245 89.1395 266.828
  CHANNELS 6 Xposition Yposition Zposition Zrotation Xrotation Yrotation
  JOINT ToSpine
  {
    OFFSET -0.0105055 1.38907 -7.13956
    CHANNELS 3 Zrotation Xrotation Yrotation
    JOINT Spine
    {
      OFFSET 0.0105055 10 1
      CHANNELS 3 Zrotation Xrotation Yrotation
      JOINT Spine1
      {
        OFFSET 0 12 1.60637
        CHANNELS 3 Zrotation Xrotation Yrotation
        JOINT Neck
        {
          OFFSET 0 27 2.26658
          CHANNELS 3 Zrotation Xrotation Yrotation
          JOINT Head
          {
            OFFSET 0 9 2.12705
            CHANNELS 3 Zrotation Xrotation Yrotation
            End Site
            {
              OFFSET 0 11 2
            }
          }
        }
        JOINT LeftShoulder
        {
          OFFSET 8 19.6109 2.86452
          CHANNELS 3 Zrotation Xrotation Yrotation
          JOINT LeftArm
          {
            OFFSET 12 1 0.681055
            CHANNELS 3 Zrotation Xrotation Yrotation
            JOINT LeftForeArm
            {
              OFFSET 19 0 -1.52608
              CHANNELS 3 Zrotation Xrotation Yrotation
              JOINT LeftHand
              {
                OFFSET 23 0 0
                CHANNELS 3 Zrotation Xrotation Yrotation
                End Site
                {
                  OFFSET 10 0 0
                }
              }
            }
          }
        }
        JOINT RightShoulder
        {
          OFFSET -8 19.6109 2.86452
          CHANNELS 3 Zrotation Xrotation Yrotation
          JOINT RightArm
          {
            OFFSET -12 1 0.681055
            CHANNELS 3 Zrotation Xrotation Yrotation
            JOINT RightForeArm
            {
              OFFSET -19 0 -1.52608
              CHANNELS 3 Zrotation Xrotation Yrotation
              JOINT RightHand
              {
                OFFSET -23 0 0
                CHANNELS 3 Zrotation Xrotation Yrotation
                End Site
                {
                  OFFSET -10 0 0
                }
              }
            }
          }
        }
      }
    }
  }
  JOINT LeftUpLeg
  {
    OFFSET 9 -7.17245 0
    CHANNELS 3 Zrotation Xrotation Yrotation
    JOINT LeftLeg
    {
      OFFSET 0 -44.1113 0
      CHANNELS 3 Zrotation Xrotation Yrotation
      JOINT LeftFoot
      {
        OFFSET 0 -36.1829 0
        CHANNELS 3 Zrotation Xrotation Yrotation
        JOINT LeftToeBase
        {
          OFFSET 0 -4.84184 13
          CHANNELS 3 Zrotation Xrotation Yrotation
          End Site
          {
            OFFSET 0 1 6
          }
        }
      }
    }
  }
  JOINT RightUpLeg
  {
    OFFSET -9 -7.17245 0
    CHANNELS 3 Zrotation Xrotation Yrotation
    JOINT RightLeg
    {
      OFFSET 0 -44.0551 0
      CHANNELS 3 Zrotation Xrotation Yrotation
      JOINT RightFoot
      {
        OFFSET 0 -36.1469 0
        CHANNELS 3 Zrotation Xrotation Yrotation
        JOINT RightToeBase
        {
          OFFSET 0 -4.92256 13
          CHANNELS 3 Zrotation Xrotation Yrotation
          End Site
          {
            OFFSET 0 1 6
          }
        }
      }
    }
  }
}
MOTION
Frames:	17
Frame Time:	0.0333333
-32.9574 91.9116 39.5538 -42.8807 -29.6266 120.707 0 0 0 8.22209 45.0734 -3.11543 -10.1804 -6.22452 2.9522 5.5233 -20.1916 -0.351864 -2.37098 4.71948 0.950943 -4.94038 2.74908 -17.6911 -18.8777 -0.50636 -68.3446 -5.23323 -9.731 3.24038 -9.92576 0.433205 -4.98914 9.96467 4.72852 23.3536 16.045 -1.79299 39.2325 5.15039 -24.6551 2.68889 3.99604 0.228598 6.55806 19.6956 -78.0757 37.3383 -2.37765 30.4072 -25.4003 1.60919 -2.24609 0.0213953 -0.48744 7.88183 0.0657966 -15.647 -76.9684 -28.502 -0.00582817 33.4137 9.80336 -21.7732 -1.85498 -0.356876 3.78783 -14.1301 -6.5993 
-32.7866 92.379 39.6287 -41.6304 -29.0499 121.458 0 0 0 8.04757 43.3099 -2.66221 -9.86794 -5.85338 3.06091 5.49726 -18.9668 -0.593236 -2.75118 5.0506 0.894554 -6.84684 3.10782 -17.6734 -18.6676 2.99312 -65.3721 -5.93582 -8.85426 2.6568 -10.0765 0.431594 -4.90213 10.6207 4.76548 22.6948 18.2525 2.0191 37.2983 5.64088 -22.416 3.51254 4.05488 0.237157 6.6932 14.7527 -76.2692 28.002 -3.92107 28.4251 -20.7041 1.11032 -1.60933 0.00601698 -0.29146 7.66562 -0.581952 -13.2834 -74.9384 -26.5798 0.00131801 31.9732 10.1654 -21.6261 -1.29877 -0.24797 3.823 -14.2942 -6.47369 
-32.5109 92.8405 39.7647 -40.2736 -28.2571 122.249 0 0 0 7.73186 41.7054 -2.50233 -9.71235 -5.7087 2.98355 5.64211 -17.8355 -0.538151 -2.94039 5.41284 1.07565 -9.09039 3.33527 -16.5359 -17.9712 6.41512 -62.9184 -6.61163 -9.57937 2.33214 -10.219 0.436388 -4.88147 11.5166 4.96609 22.6175 20.5016 5.3676 35.1315 6.06043 -20.9913 4.29318 3.84251 0.220863 6.57261 11.7816 -74.1298 21.2645 -5.33155 26.7639 -17.2857 -0.814663 -2.34209 -0.0135498 -1.34501 9.20354 2.39011 -10.7442 -72.7702 -23.747 0.000616308 30.5395 9.89922 -21.3998 -0.834359 -0.157732 3.8335 -14.3444 -6.47355 
-32.2574 93.2821 39.8798 -38.8617 -27.6574 122.875 0 0 0 7.6906 39.9979 -2.35447 -9.57297 -5.82918 2.89848 5.31163 -15.8704 -0.388965 -2.74854 5.17204 1.20245 -11.4091 3.56839 -15.497 -17.4881 9.76221 -59.7892 -7.08537 -11.284 1.3933 -10.0567 0.447554 -5.08386 12.6586 5.28134 22.8141 22.9168 8.00397 32.5714 6.21213 -19.4371 4.80321 3.48345 0.193064 6.34428 9.87919 -71.8934 15.7602 -6.29494 24.6792 -13.7944 -0.947368 -1.18664 -0.0103389 -1.02431 8.58522 1.54794 -8.27591 -70.6046 -21.2062 -0.011671 29.07 9.75941 -20.2908 -0.735399 -0.13129 3.62207 -13.3534 -6.33449 
-31.9474 93.7013 39.9503 -37.6508 -27.1741 123.4 0 0 0 7.69913 37.9129 -2.20295 -9.36375 -5.72791 2.83879 4.72183 -14.019 -0.107852 -2.33285 5.31764 1.3384 -13.4473 3.78538 -14.8744 -17.0912 12.7349 -56.1121 -7.39807 -13.1121 0.0236886 -10.6012 0.461263 -4.96264 14.124 5.62279 22.757 24.4857 10.5103 29.8468 6.79193 -20.2108 5.78599 3.51209 0.193804 6.31264 8.38913 -69.958 11.265 -6.44317 23.0174 -11.2132 -1.67048 -0.856578 -0.0142626 -0.992061 8.47918 1.46546 -6.25793 -68.5781 -18.9104 0.110131 27.6334 9.23989 -19.3969 -0.616815 -0.105534 3.50094 -12.814 -5.96709 
-31.5476 94.0308 39.9733 -36.5532 -26.4856 124.155 0 0 0 7.38727 35.3802 -1.9521 -8.8079 -5.0701 2.76138 4.18049 -11.9149 -0.03209 -2.26026 4.88967 1.36786 -15.4901 3.99332 -14.2534 -17.8956 14.6605 -52.8771 -7.48246 -15.389 -0.448415 -10.6915 0.473518 -5.05585 14.4945 5.51139 21.8401 27.3479 12.4608 28.1849 7.0917 -20.5284 5.85618 3.41417 0.200155 6.71474 6.75434 -68.1034 8.24612 -6.29183 21.9343 -10.098 -2.8437 -1.28667 -0.0279521 -1.37559 8.75113 2.60714 -5.384 -66.7637 -16.9845 0.278686 26.8707 8.0029 -19.0204 -0.698019 -0.116452 3.45408 -12.607 -5.77735 
-31.1166 94.32 39.9183 -35.3939 -25.7261 124.821 0 0 0 6.90427 33.1323 -1.50191 -7.88559 -4.78288 2.71951 3.35543 -9.7991 0.0700241 -2.13858 4.54494 1.32255 -17.5043 4.16021 -13.6095 -18.9249 16.4601 -49.8129 -7.49846 -17.0607 -1.0064 -10.3092 0.44855 -4.969 14.2865 5.24511 20.8787 30.9448 13.8736 26.1777 6.93368 -19.0423 5.85205 3.54293 0.210473 6.80198 5.35298 -65.8863 6.07584 -5.99711 20.4431 -9.29616 -1.58899 0.557535 -0.00598914 -0.598566 5.13962 1.05083 -4.72309 -64.9818 -15.5106 0.414371 26.5141 7.0355 -18.4486 -1.06627 -0.173208 3.36901 -12.2357 -5.55782 
-30.6459 94.6953 39.828 -34.1246 -25.1569 125.943 0 0 0 7.48499 31.298 -1.74844 -7.8739 -5.23392 2.34068 3.51775 -7.96098 0.104527 -2.80488 5.1176 1.64798 -18.0307 4.09592 -13.0018 -20.8803 18.5174 -46.5808 -7.28439 -16.6509 -1.81801 -9.97665 0.444731 -5.09487 15.7222 5.5408 20.7479 32.4348 15.7169 22.7816 7.38621 -19.8271 6.95818 3.49182 0.210566 6.91734 3.89459 -63.6622 4.32748 -5.43358 19.02 -9.74503 -2.05968 0.887915 0.000711677 -0.687483 5.48004 1.31675 -4.71233 -62.8965 -14.9001 0.783647 25.7703 6.02546 -18.2875 -1.16726 -0.187935 3.3391 -12.093 -5.6604 
-30.1309 95.0286 39.7003 -32.8334 -24.813 127.07 0 0 0 8.2277 28.8476 -1.96921 -7.64506 -5.01834 2.07052 3.33588 -6.06459 0.222134 -3.77078 5.60333 2.02659 -18.061 3.99441 -12.591 -23.7023 19.7855 -43.5518 -6.98011 -16.6713 -2.24342 -9.75434 0.446775 -5.23302 17.0289 5.83047 20.7318 33.8793 16.2333 19.5503 7.55688 -20.0966 7.84513 3.23406 0.207802 7.33898 3.31461 -61.9395 3.72146 -4.89074 18.5918 -10.9073 -3.82986 -0.542157 -0.00952844 -1.35444 8.42409 2.62777 -4.36464 -60.8369 -14.0932 1.17724 24.8683 4.83609 -18.4566 -1.13421 -0.184341 3.34165 -12.0915 -5.82434 
-29.5875 95.2991 39.518 -31.5024 -24.4766 127.71 0 0 0 8.4558 26.0658 -1.6437 -6.5848 -4.4598 2.01134 2.01385 -3.69792 0.770484 -4.0159 5.67496 2.35303 -19.0622 4.01932 -12.1044 -25.5121 20.6917 -41.0096 -6.80053 -17.2446 -2.10855 -10.1438 0.499846 -5.621 17.7248 5.97112 20.6628 35.3247 15.8476 16.6617 7.29913 -18.9933 8.69075 3.41416 0.198575 6.67766 3.4866 -59.8054 3.70167 -4.66609 17.3994 -11.421 -1.92303 2.04112 0.0230345 -0.591948 1.72493 1.89254 -3.30439 -58.8059 -12.5262 1.62181 24.0436 3.57781 -18.1916 -1.25586 -0.200861 3.3546 -12.1786 -5.45651 
-29.0306 95.7052 39.2225 -30.0004 -23.7807 128.521 0 0 0 9.34711 23.6491 -1.69403 -6.539 -3.66985 1.93205 1.52904 -0.936553 1.14491 -4.5423 5.31221 2.76 -19.37 4.03887 -12.0079 -27.1529 21.7913 -38.6251 -6.63844 -18.0869 -1.84402 -9.92957 0.527419 -6.06578 18.5784 6.08724 20.3704 36.5653 15.433 14.2195 7.17175 -18.7523 9.25714 3.72227 0.215271 6.58928 3.06791 -57.4852 3.17076 -3.98402 16.7943 -11.9034 -3.02861 1.08649 -0.0193753 -0.865341 3.88602 2.38499 -2.66975 -56.1045 -10.6829 2.29424 22.626 1.85819 -18.0202 -1.06835 -0.168929 3.40676 -12.4221 -5.27916 
-28.4427 96.1541 38.909 -28.2811 -22.6219 129.486 0 0 0 9.73229 21.8087 -1.73548 -5.98987 -2.80495 1.75813 0.419442 1.60602 1.68602 -4.39478 5.04569 2.93427 -19.6598 4.01014 -11.7446 -28.96 22.5061 -36.3354 -6.47734 -19.2347 -1.83298 -10.0936 0.501868 -5.69341 18.7828 5.93833 19.6295 38.1645 14.7843 12.6829 7.1265 -19.3853 9.08018 3.94504 0.2482 7.20296 2.44725 -54.8062 2.63877 -3.30263 16.5317 -12.3846 -4.92019 -1.37532 -0.044832 -1.51423 9.25206 2.89904 -2.34056 -52.9932 -9.2637 2.71388 21.4578 0.522706 -18.2724 -1.05857 -0.171113 3.37176 -12.2366 -5.79009 
-27.8174 96.5043 38.5717 -26.5784 -21.0431 130.555 0 0 0 9.5689 20.3354 -1.55789 -4.93248 -2.19954 1.40011 -0.883373 3.63918 2.14465 -4.26099 5.51572 2.96349 -19.8989 3.93884 -11.3471 -30.5179 23.491 -34.3066 -6.36447 -19.0293 -2.24352 -10.0543 0.483834 -5.50486 18.7691 5.76911 18.9991 39.919 13.6942 11.0027 6.93215 -19.4503 9.23906 4.05938 0.245925 6.93115 1.43265 -51.1062 1.85099 -3.29165 14.5585 -12.491 -1.78923 1.69351 0.00883176 -0.544873 2.92247 1.44317 -2.57871 -49.9547 -8.88845 3.02898 21.0577 -0.299072 -19.9166 -0.980768 -0.168231 3.59122 -13.2184 -6.14143 
-27.181 96.7892 38.2334 -24.9427 -19.1333 131.414 0 0 0 9.46876 19.0897 -1.46764 -4.54608 -1.50009 1.25372 -1.89118 5.36593 2.41265 -4.25532 6.15054 2.89844 -20.2183 3.83203 -10.7937 -31.0447 25.196 -32.6985 -6.54643 -19.407 -2.99264 -9.57392 0.528843 -6.2967 18.5394 5.59915 18.5301 41.9192 12.6645 9.50735 6.67779 -19.1201 9.39554 3.9248 0.242523 7.07931 0.715153 -47.8326 1.58192 -3.22165 14.1986 -12.4508 -2.11108 0.965664 -0.0197707 -0.516574 3.29211 1.22341 -2.85617 -46.9061 -8.987 2.97953 21.012 -0.365366 -21.7802 -0.954769 -0.184936 3.87989 -14.5591 -6.45358 
-26.5771 97.0301 37.883 -23.563 -16.9991 132.005 0 0 0 9.24439 17.8974 -1.44348 -4.49993 -0.954548 1.1727 -2.89821 7.64373 2.92705 -4.31895 6.08239 3.04024 -20.9274 3.78659 -10.2821 -31.7424 26.0286 -30.5646 -6.48105 -19.7479 -3.25913 -10.1276 0.579584 -6.54161 18.4784 5.55812 18.4218 43.3704 12.3927 8.10672 6.75102 -19.6577 9.45934 3.84774 0.230461 6.8636 -0.101259 -45.0953 1.32686 -3.06653 15.1045 -12.5882 -3.93167 -1.95577 -0.0592113 -1.23597 6.71798 2.69572 -3.49269 -44.1978 -10.2163 2.41326 21.8374 0.80871 -22.0093 -2.01389 -0.392474 3.85327 -14.4384 -6.63748 
-25.9733 97.1871 37.4336 -22.2582 -14.9567 132.15 0 0 0 9.31722 16.6366 -1.20982 -4.7177 -0.647127 1.1705 -3.75685 10.5894 3.40745 -4.6331 5.63774 3.21086 -21.3537 3.82696 -10.2288 -33.5703 25.6725 -27.1703 -6.19326 -19.7397 -3.92374 -11.0294 0.606349 -6.26985 18.6617 5.65224 18.6352 44.652 11.896 6.56113 6.66858 -19.6726 9.39916 3.94176 0.229291 6.6551 -0.783066 -41.9386 0.91826 -3.21642 14.9464 -11.3238 -1.58346 -2.4826 -0.0321467 -0.67165 4.45575 1.4436 -4.04875 -41.7125 -11.3842 1.96463 23.0007 2.16748 -21.5303 -3.41279 -0.651495 3.78688 -14.1274 -6.28206 
-25.3547 97.3367 36.9773 -20.6398 -13.1493 132.483 0 0 0 9.60246 15.6454 -0.970721 -4.52125 -0.216096 1.05406 -4.74686 12.7169 3.912 -4.70082 6.05644 3.30311 -21.7404 3.81338 -10.0067 -35.4464 24.7967 -24.1886 -5.87546 -19.6334 -4.34375 -11.7298 0.602964 -5.86809 19.4599 5.62059 17.9129 44.5594 12.6788 5.81764 6.80712 -19.6388 9.4182 3.94988 0.229863 6.66225 -1.17686 -39.7937 2.05548 -2.91962 17.6478 -9.73874 0.279271 -4.29619 0.00980914 -0.206739 2.89554 0.0593249 -4.56428 -38.8813 -12.2906 1.84762 23.8655 3.05967 -19.2985 -5.18639 -0.875457 3.52664 -12.9393 -5.42526 
